<?xml version="1.0" encoding="UTF-8"?>
<svg width="621px" height="302px" viewBox="0 0 621 302" version="1.1" xmlns="http://www.w3.org/2000/svg" xmlns:xlink="http://www.w3.org/1999/xlink">
    <!-- Generator: Sketch 64 (93537) - https://sketch.com -->
    <title>biased_reviews_output</title>
    <desc>Created with Sketch.</desc>
    <g id="Page-1" stroke="none" stroke-width="1" fill="none" fill-rule="evenodd">
        <g id="biased_reviews_output" transform="translate(1.000000, 1.000000)">
            <g id="Group" transform="translate(39.000000, 29.000000)">
                <g transform="translate(152.757636, 155.892788) rotate(-8.908503) translate(-152.757636, -155.892788) translate(8.757636, 151.392788)">
                    <path d="M1.00786499,4.5079907 L115.861385,4.5079907 L115.861385,3.5079907 L1.00786499,3.5079907 L1.00786499,4.5079907 Z M165.869198,4.5079907 L280.722718,4.5079907 L280.722718,7.5079907 L287.722718,4.0079907 L280.722718,0.507990703 L280.722718,3.5079907 L165.869198,3.5079907 L165.869198,4.5079907 Z" id="Shape" fill="#A5ABB6" fill-rule="nonzero"></path>
                    <text id="REVIEWED_TO" fill="#000000" font-family="Helvetica" font-size="7" font-weight="normal">
                        <tspan x="115.450985" y="7.0079907">REVIEWED_TO</tspan>
                    </text>
                </g>
                <g transform="translate(77.096841, 213.797500) rotate(19.409999) translate(-77.096841, -213.797500) translate(6.096841, 209.297500)">
                    <path d="M-0.00357788465,4.5000128 L42.3668357,4.5000128 L42.3668357,3.5000128 L-0.00357788465,3.5000128 L-0.00357788465,4.5000128 Z M92.3746482,4.5000128 L134.745062,4.5000128 L134.745062,7.5000128 L141.745062,4.0000128 L134.745062,0.500012801 L134.745062,3.5000128 L92.3746482,3.5000128 L92.3746482,4.5000128 Z" id="Shape" fill="#A5ABB6" fill-rule="nonzero"></path>
                    <text id="REVIEWED_TO" fill="#000000" font-family="Helvetica" font-size="7" font-weight="normal">
                        <tspan x="41.9564353" y="7.0000128">REVIEWED_TO</tspan>
                    </text>
                </g>
                <g transform="translate(76.157041, 89.158182) rotate(-46.112733) translate(-76.157041, -89.158182) translate(-27.342959, 84.658182)">
                    <path d="M0.00098378442,4.50000097 L74.6439464,4.50000097 L74.6439464,3.50000097 L0.00098378442,3.50000097 L0.00098378442,4.50000097 Z M124.651759,4.50000097 L199.294721,4.50000097 L199.294721,7.50000097 L206.294721,4.00000097 L199.294721,0.500000968 L199.294721,3.50000097 L124.651759,3.50000097 L124.651759,4.50000097 Z" id="Shape" fill="#A5ABB6" fill-rule="nonzero"></path>
                    <text id="REVIEWED_TO" fill="#000000" font-family="Helvetica" font-size="7" font-weight="normal">
                        <tspan x="74.233546" y="7.00000097">REVIEWED_TO</tspan>
                    </text>
                </g>
                <g transform="translate(119.790964, 134.827220) rotate(-19.500105) translate(-119.790964, -134.827220) translate(3.790964, 130.327220)">
                    <path d="M0.00436418207,4.50001905 L87.2366889,4.50001905 L87.2366889,3.50001905 L0.00436418207,3.50001905 L0.00436418207,4.50001905 Z M137.244501,4.50001905 L224.476826,4.50001905 L224.476826,7.50001905 L231.476826,4.00001905 L224.476826,0.500019046 L224.476826,3.50001905 L137.244501,3.50001905 L137.244501,4.50001905 Z" id="Shape" fill="#A5ABB6" fill-rule="nonzero"></path>
                    <text id="REVIEWED_TO" fill="#000000" font-family="Helvetica" font-size="7" font-weight="normal">
                        <tspan x="86.8262885" y="7.00001905">REVIEWED_TO</tspan>
                    </text>
                </g>
                <g transform="translate(96.255557, 111.425170) rotate(-32.799086) translate(-96.255557, -111.425170) translate(-8.744443, 106.925170)">
                    <path d="M0.00697311869,4.50004863 L76.375055,4.50004863 L76.375055,3.50004863 L0.00697311869,3.50004863 L0.00697311869,4.50004863 Z M126.382868,4.50004863 L202.750949,4.50004863 L202.750949,7.50004863 L209.750949,4.00004863 L202.750949,0.500048627 L202.750949,3.50004863 L126.382868,3.50004863 L126.382868,4.50004863 Z" id="Shape" fill="#A5ABB6" fill-rule="nonzero"></path>
                    <text id="REVIEWED_TO" fill="#000000" font-family="Helvetica" font-size="7" font-weight="normal">
                        <tspan x="75.8155408" y="6.21553944">REVIEWED_TO</tspan>
                    </text>
                </g>
                <g transform="translate(150.723368, 207.109710) rotate(8.729265) translate(-150.723368, -207.109710) translate(9.723368, 202.609710)">
                    <path d="M-0.00636386413,4.5000405 L112.34586,4.5000405 L112.34586,3.5000405 L-0.00636386413,3.5000405 L-0.00636386413,4.5000405 Z M162.353673,4.5000405 L274.705897,4.5000405 L274.705897,7.5000405 L281.705897,4.0000405 L274.705897,0.5000405 L274.705897,3.5000405 L162.353673,3.5000405 L162.353673,4.5000405 Z" id="Shape" fill="#A5ABB6" fill-rule="nonzero"></path>
                    <text id="REVIEWED_TO" fill="#000000" font-family="Helvetica" font-size="7" font-weight="normal">
                        <tspan x="111.93546" y="7.0000405">REVIEWED_TO</tspan>
                    </text>
                </g>
                <g transform="translate(117.544708, 174.734171) rotate(-3.144805) translate(-117.544708, -174.734171) translate(11.544708, 170.234171)">
                    <path d="M0.00126366422,4.5000016 L77.1812144,4.5000016 L77.1812144,3.5000016 L0.00126366422,3.5000016 L0.00126366422,4.5000016 Z M127.189027,4.5000016 L204.368978,4.5000016 L204.368978,7.5000016 L211.368978,4.0000016 L204.368978,0.500001597 L204.368978,3.5000016 L127.189027,3.5000016 L127.189027,4.5000016 Z" id="Shape" fill="#A5ABB6" fill-rule="nonzero"></path>
                    <text id="REVIEWED_TO" fill="#000000" font-family="Helvetica" font-size="7" font-weight="normal">
                        <tspan x="76.6896384" y="6.83542264">REVIEWED_TO</tspan>
                    </text>
                </g>
                <g transform="translate(152.873815, 95.730719) rotate(11.560999) translate(-152.873815, -95.730719) translate(7.873815, 91.230719)">
                    <path d="M-0.00489556482,4.50002397 L116.413931,4.50002397 L116.413931,3.50002397 L-0.00489556482,3.50002397 L-0.00489556482,4.50002397 Z M166.421744,4.50002397 L282.840571,4.50002397 L282.840571,7.50002397 L289.840571,4.00002397 L282.840571,0.500023967 L282.840571,3.50002397 L166.421744,3.50002397 L166.421744,4.50002397 Z" id="Shape" fill="#A5ABB6" fill-rule="nonzero"></path>
                    <text id="REVIEWED_TO" fill="#000000" font-family="Helvetica" font-size="7" font-weight="normal">
                        <tspan x="116.003531" y="7.00002397">REVIEWED_TO</tspan>
                    </text>
                </g>
                <g transform="translate(76.923434, 153.799954) rotate(45.443499) translate(-76.923434, -153.799954) translate(-27.576566, 149.299954)">
                    <path d="M-0.00387022054,4.50001498 L75.5864312,4.50001498 L75.5864312,3.50001498 L-0.00387022054,3.50001498 L-0.00387022054,4.50001498 Z M125.594244,4.50001498 L201.184545,4.50001498 L201.184545,7.50001498 L208.184545,4.00001498 L201.184545,0.500014979 L201.184545,3.50001498 L125.594244,3.50001498 L125.594244,4.50001498 Z" id="Shape" fill="#A5ABB6" fill-rule="nonzero"></path>
                    <text id="REVIEWED_TO" fill="#000000" font-family="Helvetica" font-size="7" font-weight="normal">
                        <tspan x="75.1760308" y="7.00001498">REVIEWED_TO</tspan>
                    </text>
                </g>
                <g transform="translate(75.429789, 29.453474) rotate(-19.910284) translate(-75.429789, -29.453474) translate(4.929789, 24.953474)">
                    <path d="M1.00788029,4.50800649 L42.1466059,4.50800649 L42.1466059,3.50800649 L1.00788029,3.50800649 L1.00788029,4.50800649 Z M92.1544184,4.50800649 L133.293144,4.50800649 L133.293144,7.50800649 L140.293144,4.00800649 L133.293144,0.508006494 L133.293144,3.50800649 L92.1544184,3.50800649 L92.1544184,4.50800649 Z" id="Shape" fill="#A5ABB6" fill-rule="nonzero"></path>
                    <text id="REVIEWED_TO" fill="#000000" font-family="Helvetica" font-size="7" font-weight="normal">
                        <tspan x="41.7362055" y="7.00800649">REVIEWED_TO</tspan>
                    </text>
                </g>
                <g transform="translate(118.727240, 74.775083) rotate(5.653142) translate(-118.727240, -74.775083) translate(9.727240, 70.275083)">
                    <path d="M0.994267894,4.49433287 L80.9519914,4.49433287 L80.9519914,3.49433287 L0.994267894,3.49433287 L0.994267894,4.49433287 Z M130.959804,4.49433287 L210.917527,4.49433287 L210.917527,7.49433287 L217.917527,3.99433287 L210.917527,0.494332868 L210.917527,3.49433287 L130.959804,3.49433287 L130.959804,4.49433287 Z" id="Shape" fill="#A5ABB6" fill-rule="nonzero"></path>
                    <text id="REVIEWED_TO" fill="#000000" font-family="Helvetica" font-size="7" font-weight="normal">
                        <tspan x="81.4528121" y="6.19620829">REVIEWED_TO</tspan>
                    </text>
                </g>
                <g transform="translate(95.983690, 51.423599) rotate(-5.343814) translate(-95.983690, -51.423599) translate(10.983690, 46.923599)">
                    <path d="M0.00300032419,4.500009 L56.2922674,4.500009 L56.2922674,3.500009 L0.00300032419,3.500009 L0.00300032419,4.500009 Z M106.30008,4.500009 L162.589347,4.500009 L162.589347,7.500009 L169.589347,4.000009 L162.589347,0.500009002 L162.589347,3.500009 L106.30008,3.500009 L106.30008,4.500009 Z" id="Shape" fill="#A5ABB6" fill-rule="nonzero"></path>
                    <text id="REVIEWED_TO" fill="#000000" font-family="Helvetica" font-size="7" font-weight="normal">
                        <tspan x="56.8048661" y="6.81374503">REVIEWED_TO</tspan>
                    </text>
                </g>
                <g transform="translate(150.337181, 146.944871) rotate(27.467133) translate(-150.337181, -146.944871) translate(-9.662819, 142.444871)">
                    <path d="M-0.004076459,4.50001662 L131.421876,4.50001662 L131.421876,3.50001662 L-0.004076459,3.50001662 L-0.004076459,4.50001662 Z M181.429689,4.50001662 L312.855642,4.50001662 L312.855642,7.50001662 L319.855642,4.00001662 L312.855642,0.500016618 L312.855642,3.50001662 L181.429689,3.50001662 L181.429689,4.50001662 Z" id="Shape" fill="#A5ABB6" fill-rule="nonzero"></path>
                    <text id="REVIEWED_TO" fill="#000000" font-family="Helvetica" font-size="7" font-weight="normal">
                        <tspan x="131.228752" y="6.14794492">REVIEWED_TO</tspan>
                    </text>
                </g>
                <g transform="translate(116.902535, 114.604569) rotate(22.066381) translate(-116.902535, -114.604569) translate(0.902535, 110.104569)">
                    <path d="M-0.000579280334,4.50000034 L87.456912,4.50000034 L87.456912,3.50000034 L-0.000579280334,3.50000034 L-0.000579280334,4.50000034 Z M137.464724,4.50000034 L224.922216,4.50000034 L224.922216,7.50000034 L231.922216,4.00000034 L224.922216,0.500000336 L224.922216,3.50000034 L137.464724,3.50000034 L137.464724,4.50000034 Z" id="Shape" fill="#A5ABB6" fill-rule="nonzero"></path>
                    <text id="REVIEWED_TO" fill="#000000" font-family="Helvetica" font-size="7" font-weight="normal">
                        <tspan x="87.0465116" y="7.00000034">REVIEWED_TO</tspan>
                    </text>
                </g>
                <g transform="translate(437.360659, 130.668539) rotate(0.674804) translate(-437.360659, -130.668539) translate(344.360659, 125.668539)">
                    <path d="M0,5.5 L61.6163213,5.5 L61.6163213,4.5 L0,4.5 L0,5.5 Z M116.952259,5.5 L178.56858,5.5 L178.56858,8.5 L185.56858,5 L178.56858,1.5 L178.56858,4.5 L116.952259,4.5 L116.952259,5.5 Z" id="Shape" fill="#A5ABB6" fill-rule="nonzero"></path>
                    <text id="OWNED_BY" fill="#000000" font-family="Helvetica" font-size="8" font-weight="normal">
                        <tspan x="66.3917119" y="8">OWNED_BY</tspan>
                    </text>
                </g>
                <g transform="translate(361.471169, 188.532422) rotate(-16.275586) translate(-361.471169, -188.532422) translate(184.471169, 183.532422)">
                    <path d="M0,5.5 L145.595089,5.5 L145.595089,4.5 L0,4.5 L0,5.5 Z M200.931026,5.5 L346.526115,5.5 L346.526115,8.5 L353.526115,5 L346.526115,1.5 L346.526115,4.5 L200.931026,4.5 L200.931026,5.5 Z" id="Shape" fill="#A5ABB6" fill-rule="nonzero"></path>
                    <text id="OWNED_BY" fill="#000000" font-family="Helvetica" font-size="8" font-weight="normal">
                        <tspan x="150.37048" y="8">OWNED_BY</tspan>
                    </text>
                </g>
                <g transform="translate(359.976672, 64.492619) rotate(19.114433) translate(-359.976672, -64.492619) translate(177.976672, 59.492619)">
                    <path d="M0,5.5 L150.491802,5.5 L150.491802,4.5 L0,4.5 L0,5.5 Z M205.827739,5.5 L356.319541,5.5 L356.319541,8.5 L363.319541,5 L356.319541,1.5 L356.319541,4.5 L205.827739,4.5 L205.827739,5.5 Z" id="Shape" fill="#A5ABB6" fill-rule="nonzero"></path>
                    <text id="OWNED_BY" fill="#000000" font-family="Helvetica" font-size="8" font-weight="normal">
                        <tspan x="155.267192" y="8">OWNED_BY</tspan>
                    </text>
                </g>
                <g transform="translate(403.906371, 109.820812) rotate(8.374917) translate(-403.906371, -109.820812) translate(275.406371, 104.820812)">
                    <path d="M0,5.5 L96.9032635,5.5 L96.9032635,4.5 L0,4.5 L0,5.5 Z M152.239201,5.5 L249.142465,5.5 L249.142465,8.5 L256.142465,5 L249.142465,1.5 L249.142465,4.5 L152.239201,4.5 L152.239201,5.5 Z" id="Shape" fill="#A5ABB6" fill-rule="nonzero"></path>
                    <text id="OWNED_BY" fill="#000000" font-family="Helvetica" font-size="8" font-weight="normal">
                        <tspan x="101.678654" y="8">OWNED_BY</tspan>
                    </text>
                </g>
                <g transform="translate(380.181194, 86.437394) rotate(14.630533) translate(-380.181194, -86.437394) translate(224.181194, 81.437394)">
                    <path d="M0,5.5 L124.629912,5.5 L124.629912,4.5 L0,4.5 L0,5.5 Z M179.96585,5.5 L304.595762,5.5 L304.595762,8.5 L311.595762,5 L304.595762,1.5 L304.595762,4.5 L179.96585,4.5 L179.96585,5.5 Z" id="Shape" fill="#A5ABB6" fill-rule="nonzero"></path>
                    <text id="OWNED_BY" fill="#000000" font-family="Helvetica" font-size="8" font-weight="normal">
                        <tspan x="129.405303" y="8">OWNED_BY</tspan>
                    </text>
                </g>
                <g transform="translate(435.123459, 181.755057) rotate(-22.532683) translate(-435.123459, -181.755057) translate(329.623459, 176.755057)">
                    <path d="M0,5.5 L73.9313723,5.5 L73.9313723,4.5 L0,4.5 L0,5.5 Z M129.26731,5.5 L203.198682,5.5 L203.198682,8.5 L210.198682,5 L203.198682,1.5 L203.198682,4.5 L129.26731,4.5 L129.26731,5.5 Z" id="Shape" fill="#A5ABB6" fill-rule="nonzero"></path>
                    <text id="OWNED_BY" fill="#000000" font-family="Helvetica" font-size="8" font-weight="normal">
                        <tspan x="78.7067629" y="8">OWNED_BY</tspan>
                    </text>
                </g>
                <g transform="translate(401.692147, 149.523969) rotate(-6.504636) translate(-401.692147, -149.523969) translate(271.692147, 144.523969)">
                    <path d="M0,5.5 L98.4428866,5.5 L98.4428866,4.5 L0,4.5 L0,5.5 Z M153.778824,5.5 L252.221711,5.5 L252.221711,8.5 L259.221711,5 L252.221711,1.5 L252.221711,4.5 L153.778824,4.5 L153.778824,5.5 Z" id="Shape" fill="#A5ABB6" fill-rule="nonzero"></path>
                    <text id="OWNED_BY" fill="#000000" font-family="Helvetica" font-size="8" font-weight="normal">
                        <tspan x="103.218277" y="8">OWNED_BY</tspan>
                    </text>
                </g>
            </g>
            <g id="Group">
                <g transform="translate(0.715816, 185.421471)">
                    <circle id="Oval" stroke="#F36924" stroke-width="2" fill="#F79767" fill-rule="nonzero" cx="25" cy="25" r="25"></circle>
                    <text id="Justin" fill="#FFFFFF" font-family="Helvetica" font-size="10" font-weight="normal">
                        <tspan x="11.5" y="25">Justin</tspan>
                    </text>
                    <text id="Dudley" fill="#FFFFFF" font-family="Helvetica" font-size="10" font-weight="normal">
                        <tspan x="9" y="35">Dudley</tspan>
                    </text>
                </g>
                <g transform="translate(568.921085, 136.053176)">
                    <circle id="Oval" stroke="#EB2728" stroke-width="2" fill="#F16667" fill-rule="nonzero" cx="25" cy="25" r="25"></circle>
                    <text id="Klein" fill="#FFFFFF" font-family="Helvetica" font-size="10" font-weight="normal">
                        <tspan x="13.5" y="30">Klein</tspan>
                    </text>
                </g>
                <g transform="translate(333.368843, 133.278820)">
                    <circle id="Oval" stroke="#23B3D7" stroke-width="2" fill="#57C7E3" fill-rule="nonzero" cx="25" cy="25" r="25"></circle>
                    <text id="Wheals" fill="#FFFFFF" font-family="Helvetica" font-size="10" font-weight="normal">
                        <tspan x="8" y="30">Wheals</tspan>
                    </text>
                </g>
                <g transform="translate(181.566360, 249.144478)">
                    <circle id="Oval" stroke="#23B3D7" stroke-width="2" fill="#57C7E3" fill-rule="nonzero" cx="25" cy="25" r="25"></circle>
                    <text id="Fossula" fill="#FFFFFF" font-family="Helvetica" font-size="10" font-weight="normal">
                        <tspan x="7" y="30">Fossula</tspan>
                    </text>
                </g>
                <g transform="translate(178.389316, 0.709242)">
                    <circle id="Oval" stroke="#23B3D7" stroke-width="2" fill="#57C7E3" fill-rule="nonzero" cx="25" cy="25" r="25"></circle>
                    <text id="Receiva…" fill="#FFFFFF" font-family="Helvetica" font-size="10" font-weight="normal">
                        <tspan x="1.5" y="30">Receiva…</tspan>
                    </text>
                </g>
                <g transform="translate(266.043266, 91.463547)">
                    <circle id="Oval" stroke="#23B3D7" stroke-width="2" fill="#57C7E3" fill-rule="nonzero" cx="25" cy="25" r="25"></circle>
                    <text id="Trough" fill="#FFFFFF" font-family="Helvetica" font-size="10" font-weight="normal">
                        <tspan x="9" y="30">Trough</tspan>
                    </text>
                </g>
                <g transform="translate(219.050172, 44.719508)">
                    <circle id="Oval" stroke="#23B3D7" stroke-width="2" fill="#57C7E3" fill-rule="nonzero" cx="25" cy="25" r="25"></circle>
                    <text id="Jugal" fill="#FFFFFF" font-family="Helvetica" font-size="10" font-weight="normal">
                        <tspan x="13" y="30">Jugal</tspan>
                    </text>
                </g>
                <g transform="translate(328.585687, 235.764011)">
                    <circle id="Oval" stroke="#23B3D7" stroke-width="2" fill="#57C7E3" fill-rule="nonzero" cx="25" cy="25" r="25"></circle>
                    <text id="Incitant" fill="#FFFFFF" font-family="Helvetica" font-size="10" font-weight="normal">
                        <tspan x="8.5" y="30">Incitant</tspan>
                    </text>
                </g>
                <g transform="translate(261.689930, 171.082929)">
                    <circle id="Oval" stroke="#23B3D7" stroke-width="2" fill="#57C7E3" fill-rule="nonzero" cx="25" cy="25" r="25"></circle>
                    <text id="Novenas" fill="#FFFFFF" font-family="Helvetica" font-size="10" font-weight="normal">
                        <tspan x="5" y="30">Novenas</tspan>
                    </text>
                </g>
                <g transform="translate(0.418197, 65.170021)">
                    <circle id="Oval" stroke="#F36924" stroke-width="2" fill="#F79767" fill-rule="nonzero" cx="25" cy="25" r="25"></circle>
                    <text id="Aiden" fill="#FFFFFF" font-family="Helvetica" font-size="10" font-weight="normal">
                        <tspan x="12" y="25">Aiden</tspan>
                    </text>
                    <text id="Valenzu…" fill="#FFFFFF" font-family="Helvetica" font-size="10" font-weight="normal">
                        <tspan x="2" y="35">Valenzu…</tspan>
                    </text>
                </g>
            </g>
        </g>
    </g>
</svg>