<?xml version="1.0" encoding="UTF-8"?>
<svg width="745px" height="233px" viewBox="0 0 745 233" version="1.1" xmlns="http://www.w3.org/2000/svg" xmlns:xlink="http://www.w3.org/1999/xlink">
    <!-- Generator: Sketch 64 (93537) - https://sketch.com -->
    <title>cycle_output</title>
    <desc>Created with Sketch.</desc>
    <g id="Page-1" stroke="none" stroke-width="1" fill="none" fill-rule="evenodd">
        <g id="cycle_output" transform="translate(1.000000, 1.000000)">
            <g id="Group" transform="translate(21.000000, 20.000000)">
                <g transform="translate(368.291795, 95.917119) rotate(-90.030642) translate(-368.291795, -95.917119) translate(303.791795, 91.917119)">
                    <path d="M5.68434189e-14,4.5 L30.6571121,4.5 L30.6571121,3.5 L5.68434189e-14,3.5 L5.68434189e-14,4.5 Z M90.4344558,4.5 L121.091568,4.5 L121.091568,7.5 L128.091568,4 L121.091568,0.5 L121.091568,3.5 L90.4344558,3.5 L90.4344558,4.5 Z" id="Shape" fill="#A5ABB6" fill-rule="nonzero"></path>
                    <text id="CONNECTED_TO" fill="#000000" transform="translate(60.545784, 3.500000) rotate(180.000000) translate(-60.545784, -3.500000) " font-family="Helvetica" font-size="6" font-weight="normal">
                        <tspan x="35.7635574" y="6">CONNECTED_TO</tspan>
                    </text>
                </g>
                <g transform="translate(5.276264, 94.616674) rotate(-89.386621) translate(-5.276264, -94.616674) translate(-49.723736, 90.616674)">
                    <path d="M-2.84217094e-13,4.5 L21.3188437,4.5 L21.3188437,3.5 L-2.84217094e-13,3.5 L-2.84217094e-13,4.5 Z M81.0961874,4.5 L102.415031,4.5 L102.415031,7.5 L109.415031,4 L102.415031,0.5 L102.415031,3.5 L81.0961874,3.5 L81.0961874,4.5 Z" id="Shape" fill="#A5ABB6" fill-rule="nonzero"></path>
                    <text id="CONNECTED_TO" fill="#000000" font-family="Helvetica" font-size="6" font-weight="normal">
                        <tspan x="27.3316553" y="6.25461838">CONNECTED_TO</tspan>
                    </text>
                </g>
                <g transform="translate(447.319062, 183.613238) rotate(-1.308392) translate(-447.319062, -183.613238) translate(393.319062, 178.613238)">
                    <path d="M0,5.5 L18.4590577,5.5 L18.4590577,4.5 L0,4.5 L0,5.5 Z M81.7949952,5.5 L100.254053,5.5 L100.254053,8.5 L107.254053,5 L100.254053,1.5 L100.254053,4.5 L81.7949952,4.5 L81.7949952,5.5 Z" id="Shape" fill="#A5ABB6" fill-rule="nonzero"></path>
                    <text id="SENT_TO" fill="#000000" font-family="Helvetica" font-size="8" font-weight="normal">
                        <tspan x="33.2500733" y="8">SENT_TO</tspan>
                    </text>
                </g>
                <g transform="translate(610.032558, 183.671823) rotate(1.251398) translate(-610.032558, -183.671823) translate(550.532558, 178.671823)">
                    <path d="M0,5.5 L24.0974134,5.5 L24.0974134,4.5 L0,4.5 L0,5.5 Z M87.4333509,5.5 L111.530764,5.5 L111.530764,8.5 L118.530764,5 L111.530764,1.5 L111.530764,4.5 L87.4333509,4.5 L87.4333509,5.5 Z" id="Shape" fill="#A5ABB6" fill-rule="nonzero"></path>
                    <text id="SENT_TO" fill="#000000" font-family="Helvetica" font-size="8" font-weight="normal">
                        <tspan x="37.388429" y="8">SENT_TO</tspan>
                    </text>
                </g>
                <g transform="translate(695.260705, 95.515229) rotate(-89.224940) translate(-695.260705, -95.515229) translate(630.260705, 90.515229)">
                    <path d="M0,5.5 L29.747544,5.5 L29.747544,4.5 L0,4.5 L0,5.5 Z M93.0834815,5.5 L122.831025,5.5 L122.831025,8.5 L129.831025,5 L122.831025,1.5 L122.831025,4.5 L93.0834815,4.5 L93.0834815,5.5 Z" id="Shape" fill="#A5ABB6" fill-rule="nonzero"></path>
                    <text id="SENT_TO" fill="#000000" font-family="Helvetica" font-size="8" font-weight="normal">
                        <tspan x="43.0385596" y="8">SENT_TO</tspan>
                    </text>
                </g>
                <g transform="translate(610.475869, 5.626829) rotate(-179.956300) translate(-610.475869, -5.626829) translate(549.475869, 0.626829)">
                    <path d="M0,5.5 L25.6315211,5.5 L25.6315211,4.5 L0,4.5 L0,5.5 Z M88.9674586,5.5 L114.59898,5.5 L114.59898,8.5 L121.59898,5 L114.59898,1.5 L114.59898,4.5 L88.9674586,4.5 L88.9674586,5.5 Z" id="Shape" fill="#A5ABB6" fill-rule="nonzero"></path>
                    <text id="SENT_TO" fill="#000000" transform="translate(57.299490, 5.000000) rotate(180.000000) translate(-57.299490, -5.000000) " font-family="Helvetica" font-size="8" font-weight="normal">
                        <tspan x="38.9225367" y="8">SENT_TO</tspan>
                    </text>
                </g>
                <g transform="translate(446.381892, 6.445566) rotate(179.354753) translate(-446.381892, -6.445566) translate(392.881892, 1.445566)">
                    <path d="M0,5.5 L18.1532466,5.5 L18.1532466,4.5 L0,4.5 L0,5.5 Z M81.4891841,5.5 L99.6424307,5.5 L99.6424307,8.5 L106.642431,5 L99.6424307,1.5 L99.6424307,4.5 L81.4891841,4.5 L81.4891841,5.5 Z" id="Shape" fill="#A5ABB6" fill-rule="nonzero"></path>
                    <text id="SENT_TO" fill="#000000" transform="translate(49.821215, 5.000000) rotate(180.000000) translate(-49.821215, -5.000000) " font-family="Helvetica" font-size="8" font-weight="normal">
                        <tspan x="31.4442622" y="8">SENT_TO</tspan>
                    </text>
                </g>
                <g transform="translate(73.875046, 177.107008) rotate(2.057252) translate(-73.875046, -177.107008) translate(29.375046, 172.107008)">
                    <path d="M0,5.5 L9.31308661,5.5 L9.31308661,4.5 L0,4.5 L0,5.5 Z M72.6490241,5.5 L81.9621107,5.5 L81.9621107,8.5 L88.9621107,5 L81.9621107,1.5 L81.9621107,4.5 L72.6490241,4.5 L72.6490241,5.5 Z" id="Shape" fill="#A5ABB6" fill-rule="nonzero"></path>
                    <text id="SENT_TO" fill="#000000" font-family="Helvetica" font-size="8" font-weight="normal">
                        <tspan x="22.6041022" y="8">SENT_TO</tspan>
                    </text>
                </g>
                <g transform="translate(208.292381, 179.623973) rotate(0.020632) translate(-208.292381, -179.623973) translate(168.292381, 174.623973)">
                    <path d="M0,5.5 L4.33997561,5.5 L4.33997561,4.5 L0,4.5 L0,5.5 Z M67.6759131,5.5 L72.0158887,5.5 L72.0158887,8.5 L79.0158887,5 L72.0158887,1.5 L72.0158887,4.5 L67.6759131,4.5 L67.6759131,5.5 Z" id="Shape" fill="#A5ABB6" fill-rule="nonzero"></path>
                    <text id="SENT_TO" fill="#000000" font-family="Helvetica" font-size="8" font-weight="normal">
                        <tspan x="17.6309912" y="8">SENT_TO</tspan>
                    </text>
                </g>
                <g transform="translate(270.970434, 95.157616) rotate(-90.907164) translate(-270.970434, -95.157616) translate(211.470434, 90.157616)">
                    <path d="M0,5.5 L24.1585548,5.5 L24.1585548,4.5 L0,4.5 L0,5.5 Z M87.4944923,5.5 L111.653047,5.5 L111.653047,8.5 L118.653047,5 L111.653047,1.5 L111.653047,4.5 L87.4944923,4.5 L87.4944923,5.5 Z" id="Shape" fill="#A5ABB6" fill-rule="nonzero"></path>
                    <text id="SENT_TO" fill="#000000" transform="translate(55.826524, 5.000000) rotate(180.000000) translate(-55.826524, -5.000000) " font-family="Helvetica" font-size="8" font-weight="normal">
                        <tspan x="37.4495704" y="8">SENT_TO</tspan>
                    </text>
                </g>
                <g transform="translate(206.150076, 12.248552) rotate(178.887006) translate(-206.150076, -12.248552) translate(167.650076, 7.248552)">
                    <path d="M0,5.5 L2.93600948,5.5 L2.93600948,4.5 L0,4.5 L0,5.5 Z M66.271947,5.5 L69.2079565,5.5 L69.2079565,8.5 L76.2079565,5 L69.2079565,1.5 L69.2079565,4.5 L66.271947,4.5 L66.271947,5.5 Z" id="Shape" fill="#A5ABB6" fill-rule="nonzero"></path>
                    <text id="SENT_TO" fill="#000000" transform="translate(34.603978, 5.000000) rotate(180.000000) translate(-34.603978, -5.000000) " font-family="Helvetica" font-size="8" font-weight="normal">
                        <tspan x="16.2270251" y="8">SENT_TO</tspan>
                    </text>
                </g>
                <g transform="translate(74.459486, 14.340588) rotate(179.274247) translate(-74.459486, -14.340588) translate(30.459486, 9.340588)">
                    <path d="M0,5.5 L8.50130308,5.5 L8.50130308,4.5 L0,4.5 L0,5.5 Z M71.8372406,5.5 L80.3385437,5.5 L80.3385437,8.5 L87.3385437,5 L80.3385437,1.5 L80.3385437,4.5 L71.8372406,4.5 L71.8372406,5.5 Z" id="Shape" fill="#A5ABB6" fill-rule="nonzero"></path>
                    <text id="SENT_TO" fill="#000000" transform="translate(40.169272, 5.000000) rotate(180.000000) translate(-40.169272, -5.000000) " font-family="Helvetica" font-size="8" font-weight="normal">
                        <tspan x="21.7923187" y="8">SENT_TO</tspan>
                    </text>
                </g>
            </g>
            <g id="Group">
                <g transform="translate(364.339659, 180.417106)">
                    <circle id="Oval" stroke="#F36924" stroke-width="2" fill="#F79767" fill-rule="nonzero" cx="25" cy="25" r="25"></circle>
                    <text id="Nathaniel" fill="#FFFFFF" font-family="Helvetica" font-size="10" font-weight="normal">
                        <tspan x="3.5" y="25">Nathaniel</tspan>
                    </text>
                    <text id="Hampton" fill="#FFFFFF" font-family="Helvetica" font-size="10" font-weight="normal">
                        <tspan x="4.5" y="35">Hampton</tspan>
                    </text>
                </g>
                <g transform="translate(521.552712, 176.826403)">
                    <circle id="Oval" stroke="#F36924" stroke-width="2" fill="#F79767" fill-rule="nonzero" cx="25" cy="25" r="25"></circle>
                    <text id="Gianna" fill="#FFFFFF" font-family="Helvetica" font-size="10" font-weight="normal">
                        <tspan x="8.5" y="25">Gianna</tspan>
                    </text>
                    <text id="Ratliff" fill="#FFFFFF" font-family="Helvetica" font-size="10" font-weight="normal">
                        <tspan x="12" y="35">Ratliff</tspan>
                    </text>
                </g>
                <g transform="translate(690.043281, 180.506994)">
                    <circle id="Oval" stroke="#F36924" stroke-width="2" fill="#F79767" fill-rule="nonzero" cx="25" cy="25" r="25"></circle>
                    <text id="Owen" fill="#FFFFFF" font-family="Helvetica" font-size="10" font-weight="normal">
                        <tspan x="11.5" y="25">Owen</tspan>
                    </text>
                    <text id="Fuller" fill="#FFFFFF" font-family="Helvetica" font-size="10" font-weight="normal">
                        <tspan x="12" y="35">Fuller</tspan>
                    </text>
                </g>
                <g transform="translate(692.475844, 0.692422)">
                    <circle id="Oval" stroke="#F36924" stroke-width="2" fill="#F79767" fill-rule="nonzero" cx="25" cy="25" r="25"></circle>
                    <text id="Parker" fill="#FFFFFF" font-family="Helvetica" font-size="10" font-weight="normal">
                        <tspan x="10" y="25">Parker</tspan>
                    </text>
                    <text id="Vang" fill="#FFFFFF" font-family="Helvetica" font-size="10" font-weight="normal">
                        <tspan x="13.5" y="35">Vang</tspan>
                    </text>
                </g>
                <g transform="translate(520.876914, 0.561542)">
                    <circle id="Oval" stroke="#F36924" stroke-width="2" fill="#F79767" fill-rule="nonzero" cx="25" cy="25" r="25"></circle>
                    <text id="Benjamin" fill="#FFFFFF" font-family="Helvetica" font-size="10" font-weight="normal">
                        <tspan x="4" y="25">Benjamin</tspan>
                    </text>
                    <text id="Dodson" fill="#FFFFFF" font-family="Helvetica" font-size="10" font-weight="normal">
                        <tspan x="7.5" y="35">Dodson</tspan>
                    </text>
                </g>
                <g transform="translate(364.244417, 2.325564)">
                    <circle id="Oval" stroke="#F36924" stroke-width="2" fill="#F79767" fill-rule="nonzero" cx="25" cy="25" r="25"></circle>
                    <text id="Mason" fill="#FFFFFF" font-family="Helvetica" font-size="10" font-weight="normal">
                        <tspan x="9.5" y="25">Mason</tspan>
                    </text>
                    <text id="Bartlett" fill="#FFFFFF" font-family="Helvetica" font-size="10" font-weight="normal">
                        <tspan x="9" y="35">Bartlett</tspan>
                    </text>
                </g>
                <g transform="translate(0.419842, 169.612090)">
                    <circle id="Oval" stroke="#F36924" stroke-width="2" fill="#F79767" fill-rule="nonzero" cx="25" cy="25" r="25"></circle>
                    <text id="Sebastian" fill="#FFFFFF" font-family="Helvetica" font-size="10" font-weight="normal">
                        <tspan x="2.5" y="30">Sebastian</tspan>
                    </text>
                </g>
                <g transform="translate(139.292386, 174.600566)">
                    <circle id="Oval" stroke="#F36924" stroke-width="2" fill="#F79767" fill-rule="nonzero" cx="25" cy="25" r="25"></circle>
                    <text id="Jocelyn" fill="#FFFFFF" font-family="Helvetica" font-size="10" font-weight="normal">
                        <tspan x="8" y="25">Jocelyn</tspan>
                    </text>
                    <text id="Watts" fill="#FFFFFF" font-family="Helvetica" font-size="10" font-weight="normal">
                        <tspan x="12" y="35">Watts</tspan>
                    </text>
                </g>
                <g transform="translate(268.308266, 174.647025)">
                    <circle id="Oval" stroke="#F36924" stroke-width="2" fill="#F79767" fill-rule="nonzero" cx="25" cy="25" r="25"></circle>
                    <text id="Jacob" fill="#FFFFFF" font-family="Helvetica" font-size="10" font-weight="normal">
                        <tspan x="11.5" y="25">Jacob</tspan>
                    </text>
                    <text id="Hancock" fill="#FFFFFF" font-family="Helvetica" font-size="10" font-weight="normal">
                        <tspan x="5.5" y="35">Hancock</tspan>
                    </text>
                </g>
                <g transform="translate(265.638095, 6.015117)">
                    <circle id="Oval" stroke="#F36924" stroke-width="2" fill="#F79767" fill-rule="nonzero" cx="25" cy="25" r="25"></circle>
                    <text id="Evan" fill="#FFFFFF" font-family="Helvetica" font-size="10" font-weight="normal">
                        <tspan x="13.5" y="25">Evan</tspan>
                    </text>
                    <text id="Fernan…" fill="#FFFFFF" font-family="Helvetica" font-size="10" font-weight="normal">
                        <tspan x="4" y="35">Fernan…</tspan>
                    </text>
                </g>
                <g transform="translate(139.453950, 8.466603)">
                    <circle id="Oval" stroke="#F36924" stroke-width="2" fill="#F79767" fill-rule="nonzero" cx="25" cy="25" r="25"></circle>
                    <text id="Hunter" fill="#FFFFFF" font-family="Helvetica" font-size="10" font-weight="normal">
                        <tspan x="9.5" y="25">Hunter</tspan>
                    </text>
                    <text id="Floyd" fill="#FFFFFF" font-family="Helvetica" font-size="10" font-weight="normal">
                        <tspan x="12.5" y="35">Floyd</tspan>
                    </text>
                </g>
                <g transform="translate(2.126424, 10.206194)">
                    <circle id="Oval" stroke="#F36924" stroke-width="2" fill="#F79767" fill-rule="nonzero" cx="25" cy="25" r="25"></circle>
                    <text id="James" fill="#FFFFFF" font-family="Helvetica" font-size="10" font-weight="normal">
                        <tspan x="10" y="25">James</tspan>
                    </text>
                    <text id="Mcgee" fill="#FFFFFF" font-family="Helvetica" font-size="10" font-weight="normal">
                        <tspan x="9.5" y="35">Mcgee</tspan>
                    </text>
                </g>
            </g>
        </g>
    </g>
</svg>