<?xml version="1.0" encoding="UTF-8"?>
<svg width="807px" height="314px" viewBox="0 0 807 314" version="1.1" xmlns="http://www.w3.org/2000/svg" xmlns:xlink="http://www.w3.org/1999/xlink">
    <!-- Generator: Sketch 64 (93537) - https://sketch.com -->
    <title>smurfing_output</title>
    <desc>Created with Sketch.</desc>
    <g id="Page-1" stroke="none" stroke-width="1" fill="none" fill-rule="evenodd">
        <g id="smurfing_output" transform="translate(1.000000, 1.000000)">
            <g id="Group" transform="translate(45.000000, 33.000000)">
                <g transform="translate(417.303077, 127.174434) rotate(0.858047) translate(-417.303077, -127.174434) translate(338.803077, 121.674434)">
                    <path d="M0.992456337,5.49256847 L43.7247866,5.49256847 L43.7247866,4.49256847 L0.992456337,4.49256847 L0.992456337,5.49256847 Z M107.060724,5.49256847 L149.793054,5.49256847 L149.793054,8.49256847 L156.793054,4.99256847 L149.793054,1.49256847 L149.793054,4.49256847 L107.060724,4.49256847 L107.060724,5.49256847 Z" id="Shape" fill="#A5ABB6" fill-rule="nonzero"></path>
                    <text id="SENT_TO" fill="#000000" font-family="Helvetica" font-size="8" font-weight="normal">
                        <tspan x="57.1946251" y="8.36756172">SENT_TO</tspan>
                    </text>
                </g>
                <g transform="translate(413.353034, 91.893893) rotate(-18.915265) translate(-413.353034, -91.893893) translate(334.353034, 86.393893)">
                    <path d="M0.00798685393,5.50006379 L43.7602293,5.50006379 L43.7602293,4.50006379 L0.00798685393,4.50006379 L0.00798685393,5.50006379 Z M107.096167,5.50006379 L150.848409,5.50006379 L150.848409,8.50006379 L157.848409,5.00006379 L150.848409,1.50006379 L150.848409,4.50006379 L107.096167,4.50006379 L107.096167,5.50006379 Z" id="Shape" fill="#A5ABB6" fill-rule="nonzero"></path>
                    <text id="SENT_TO" fill="#000000" font-family="Helvetica" font-size="8" font-weight="normal">
                        <tspan x="56.4964675" y="8.29733978">SENT_TO</tspan>
                    </text>
                </g>
                <g transform="translate(438.180986, 108.327645) rotate(-7.526719) translate(-438.180986, -108.327645) translate(338.680986, 102.827645)">
                    <path d="M-0.00459642618,6.49997887 L63.8793292,6.49997887 L63.8793292,5.49997887 L-0.00459642618,5.49997887 L-0.00459642618,6.49997887 Z M127.215267,6.49997887 L191.099192,6.49997887 L191.099192,9.49997887 L198.099192,5.99997887 L191.099192,2.49997887 L191.099192,5.49997887 L127.215267,5.49997887 L127.215267,6.49997887 Z" id="Shape" fill="#A5ABB6" fill-rule="nonzero"></path>
                    <text id="SENT_TO" fill="#000000" font-family="Helvetica" font-size="8" font-weight="normal">
                        <tspan x="76.2712753" y="8.55340616">SENT_TO</tspan>
                    </text>
                </g>
                <g transform="translate(421.043509, 151.690495) rotate(14.298521) translate(-421.043509, -151.690495) translate(336.543509, 146.190495)">
                    <path d="M0.00260507491,6.49999321 L48.9810736,6.49999321 L48.9810736,5.49999321 L0.00260507491,5.49999321 L0.00260507491,6.49999321 Z M112.317011,6.49999321 L161.29548,6.49999321 L161.29548,9.49999321 L168.29548,5.99999321 L161.29548,2.49999321 L161.29548,5.49999321 L112.317011,5.49999321 L112.317011,6.49999321 Z" id="Shape" fill="#A5ABB6" fill-rule="nonzero"></path>
                    <text id="SENT_TO" fill="#000000" font-family="Helvetica" font-size="8" font-weight="normal">
                        <tspan x="61.4267055" y="8.95302399">SENT_TO</tspan>
                    </text>
                </g>
                <g transform="translate(406.738348, 189.117075) rotate(35.096294) translate(-406.738348, -189.117075) translate(319.738348, 183.617075)">
                    <path d="M0.000840326721,6.49999929 L51.4031213,6.49999929 L51.4031213,5.49999929 L0.000840326721,5.49999929 L0.000840326721,6.49999929 Z M114.739059,6.49999929 L166.14134,6.49999929 L166.14134,9.49999929 L173.14134,5.99999929 L166.14134,2.49999929 L166.14134,5.49999929 L114.739059,5.49999929 L114.739059,6.49999929 Z" id="Shape" fill="#A5ABB6" fill-rule="nonzero"></path>
                    <text id="SENT_TO" fill="#000000" font-family="Helvetica" font-size="8" font-weight="normal">
                        <tspan x="61.0287429" y="8.71821586">SENT_TO</tspan>
                    </text>
                </g>
                <g transform="translate(411.344724, 58.128183) rotate(-34.521632) translate(-411.344724, -58.128183) translate(318.844724, 52.628183)">
                    <path d="M-0.00455203194,6.49997928 L57.1819345,6.49997928 L57.1819345,5.49997928 L-0.00455203194,5.49997928 L-0.00455203194,6.49997928 Z M120.517872,6.49997928 L177.704359,6.49997928 L177.704359,9.49997928 L184.704359,5.99997928 L177.704359,2.49997928 L177.704359,5.49997928 L120.517872,5.49997928 L120.517872,6.49997928 Z" id="Shape" fill="#A5ABB6" fill-rule="nonzero"></path>
                    <text id="SENT_TO" fill="#000000" font-family="Helvetica" font-size="8" font-weight="normal">
                        <tspan x="69.2047762" y="8.68725311">SENT_TO</tspan>
                    </text>
                </g>
                <g transform="translate(456.602619, 182.645597) rotate(21.888888) translate(-456.602619, -182.645597) translate(327.602619, 177.145597)">
                    <path d="M0.992183131,5.49230347 L93.9704515,5.49230347 L93.9704515,4.49230347 L0.992183131,4.49230347 L0.992183131,5.49230347 Z M157.306389,5.49230347 L250.284657,5.49230347 L250.284657,8.49230347 L257.284657,4.99230347 L250.284657,1.49230347 L250.284657,4.49230347 L157.306389,4.49230347 L157.306389,5.49230347 Z" id="Shape" fill="#A5ABB6" fill-rule="nonzero"></path>
                    <text id="SENT_TO" fill="#000000" font-family="Helvetica" font-size="8" font-weight="normal">
                        <tspan x="107.007562" y="8.12971667">SENT_TO</tspan>
                    </text>
                </g>
                <g transform="translate(445.952679, 63.269912) rotate(-25.452344) translate(-445.952679, -63.269912) translate(325.952679, 57.769912)">
                    <path d="M0.00394740318,5.50001558 L84.8194987,5.50001558 L84.8194987,4.50001558 L0.00394740318,4.50001558 L0.00394740318,5.50001558 Z M148.155436,5.50001558 L232.970988,5.50001558 L232.970988,8.50001558 L239.970988,5.00001558 L232.970988,1.50001558 L232.970988,4.50001558 L148.155436,4.50001558 L148.155436,5.50001558 Z" id="Shape" fill="#A5ABB6" fill-rule="nonzero"></path>
                    <text id="SENT_TO" fill="#000000" font-family="Helvetica" font-size="8" font-weight="normal">
                        <tspan x="98.9716081" y="8.10516389">SENT_TO</tspan>
                    </text>
                </g>
                <g transform="translate(627.987184, 123.377388) rotate(-2.312078) translate(-627.987184, -123.377388) translate(545.487184, 117.877388)">
                    <path d="M-0.00272337689,6.49999258 L46.8676433,6.49999258 L46.8676433,5.49999258 L-0.00272337689,5.49999258 L-0.00272337689,6.49999258 Z M110.203581,6.49999258 L157.073947,6.49999258 L157.073947,9.49999258 L164.073947,5.99999258 L157.073947,2.49999258 L157.073947,5.49999258 L110.203581,5.49999258 L110.203581,6.49999258 Z" id="Shape" fill="#A5ABB6" fill-rule="nonzero"></path>
                    <text id="SENT_TO" fill="#000000" font-family="Helvetica" font-size="8" font-weight="normal">
                        <tspan x="57.4929799" y="8.86039629">SENT_TO</tspan>
                    </text>
                </g>
                <g transform="translate(623.347143, 88.254632) rotate(15.490503) translate(-623.347143, -88.254632) translate(532.347143, 82.754632)">
                    <path d="M0.00428039743,6.49998168 L55.5719793,6.49998168 L55.5719793,5.49998168 L0.00428039743,5.49998168 L0.00428039743,6.49998168 Z M118.907917,6.49998168 L174.475616,6.49998168 L174.475616,9.49998168 L181.475616,5.99998168 L174.475616,2.49998168 L174.475616,5.49998168 L118.907917,5.49998168 L118.907917,6.49998168 Z" id="Shape" fill="#A5ABB6" fill-rule="nonzero"></path>
                    <text id="SENT_TO" fill="#000000" font-family="Helvetica" font-size="8" font-weight="normal">
                        <tspan x="66.5301709" y="8.85259017">SENT_TO</tspan>
                    </text>
                </g>
                <g transform="translate(647.740886, 106.121397) rotate(8.816737) translate(-647.740886, -106.121397) translate(584.740886, 101.121397)">
                    <path d="M-6.82121026e-13,5.5 L27.7275438,5.5 L27.7275438,4.5 L-6.82121026e-13,4.5 L-6.82121026e-13,5.5 Z M91.0634813,5.5 L118.791025,5.5 L118.791025,8.5 L125.791025,5 L118.791025,1.5 L118.791025,4.5 L91.0634813,4.5 L91.0634813,5.5 Z" id="Shape" fill="#A5ABB6" fill-rule="nonzero"></path>
                    <text id="SENT_TO" fill="#000000" font-family="Helvetica" font-size="8" font-weight="normal">
                        <tspan x="37.1727932" y="8.00169685">SENT_TO</tspan>
                    </text>
                </g>
                <g transform="translate(630.800548, 149.722272) rotate(-15.944353) translate(-630.800548, -149.722272) translate(547.300548, 144.222272)">
                    <path d="M0.00824066511,5.50006791 L48.0789756,5.50006791 L48.0789756,4.50006791 L0.00824066511,4.50006791 L0.00824066511,5.50006791 Z M111.414913,5.50006791 L159.485648,5.50006791 L159.485648,8.50006791 L166.485648,5.00006791 L159.485648,1.50006791 L159.485648,4.50006791 L111.414913,4.50006791 L111.414913,5.50006791 Z" id="Shape" fill="#A5ABB6" fill-rule="nonzero"></path>
                    <text id="SENT_TO" fill="#000000" font-family="Helvetica" font-size="8" font-weight="normal">
                        <tspan x="59.5523729" y="8.27249222">SENT_TO</tspan>
                    </text>
                </g>
                <g transform="translate(616.010889, 185.888111) rotate(-29.444990) translate(-616.010889, -185.888111) translate(504.510889, 180.388111)">
                    <path d="M-0.00388323002,6.49998492 L75.9682697,6.49998492 L75.9682697,5.49998492 L-0.00388323002,5.49998492 L-0.00388323002,6.49998492 Z M139.304207,6.49998492 L215.27636,6.49998492 L215.27636,9.49998492 L222.27636,5.99998492 L215.27636,2.49998492 L215.27636,5.49998492 L139.304207,5.49998492 L139.304207,6.49998492 Z" id="Shape" fill="#A5ABB6" fill-rule="nonzero"></path>
                    <text id="SENT_TO" fill="#000000" font-family="Helvetica" font-size="8" font-weight="normal">
                        <tspan x="88.9044407" y="8.61318273">SENT_TO</tspan>
                    </text>
                </g>
                <g transform="translate(621.221250, 56.352451) rotate(29.389515) translate(-621.221250, -56.352451) translate(516.221250, 50.852451)">
                    <path d="M-0.00339913218,5.50001155 L69.6917195,5.50001155 L69.6917195,4.50001155 L-0.00339913218,4.50001155 L-0.00339913218,5.50001155 Z M133.027657,5.50001155 L202.722776,5.50001155 L202.722776,8.50001155 L209.722776,5.00001155 L202.722776,1.50001155 L202.722776,4.50001155 L133.027657,4.50001155 L133.027657,5.50001155 Z" id="Shape" fill="#A5ABB6" fill-rule="nonzero"></path>
                    <text id="SENT_TO" fill="#000000" font-family="Helvetica" font-size="8" font-weight="normal">
                        <tspan x="78.5078104" y="8.00610886">SENT_TO</tspan>
                    </text>
                </g>
                <g transform="translate(666.505748, 179.006561) rotate(-41.473962) translate(-666.505748, -179.006561) translate(601.005748, 173.506561)">
                    <path d="M-0.00413605184,6.49998289 L30.2298153,6.49998289 L30.2298153,5.49998289 L-0.00413605184,5.49998289 L-0.00413605184,6.49998289 Z M93.5657528,6.49998289 L123.799704,6.49998289 L123.799704,9.49998289 L130.799704,5.99998289 L123.799704,2.49998289 L123.799704,5.49998289 L93.5657528,5.49998289 L93.5657528,6.49998289 Z" id="Shape" fill="#A5ABB6" fill-rule="nonzero"></path>
                    <text id="SENT_TO" fill="#000000" font-family="Helvetica" font-size="8" font-weight="normal">
                        <tspan x="42.7654293" y="8.75220827">SENT_TO</tspan>
                    </text>
                </g>
                <g transform="translate(655.376203, 60.529393) rotate(37.025147) translate(-655.376203, -60.529393) translate(581.376203, 55.029393)">
                    <path d="M-0.000219448167,5.50000005 L38.6932002,5.50000005 L38.6932002,4.50000005 L-0.000219448167,4.50000005 L-0.000219448167,5.50000005 Z M102.029138,5.50000005 L140.722557,5.50000005 L140.722557,8.50000005 L147.722557,5.00000005 L140.722557,1.50000005 L140.722557,4.50000005 L102.029138,4.50000005 L102.029138,5.50000005 Z" id="Shape" fill="#A5ABB6" fill-rule="nonzero"></path>
                    <text id="SENT_TO" fill="#000000" font-family="Helvetica" font-size="8" font-weight="normal">
                        <tspan x="50.2800728" y="8.01634967">SENT_TO</tspan>
                    </text>
                </g>
                <g transform="translate(42.674813, 124.359793) rotate(0.054402) translate(-42.674813, -124.359793) translate(5.174813, 118.859793)">
                    <path d="M-0.000474742838,5.50000023 L2.09891634,5.50000023 L2.09891634,4.50000023 L-0.000474742838,4.50000023 L-0.000474742838,5.50000023 Z M65.4348538,5.50000023 L67.5342449,5.50000023 L67.5342449,8.50000023 L74.5342449,5.00000023 L67.5342449,1.50000023 L67.5342449,4.50000023 L65.4348538,4.50000023 L65.4348538,5.50000023 Z" id="Shape" fill="#A5ABB6" fill-rule="nonzero"></path>
                    <text id="SENT_TO" fill="#000000" font-family="Helvetica" font-size="8" font-weight="normal">
                        <tspan x="15.8248469" y="8.14322112">SENT_TO</tspan>
                    </text>
                </g>
                <g transform="translate(43.380444, 91.463413) rotate(-27.498534) translate(-43.380444, -91.463413) translate(-2.619556, 85.963413)">
                    <path d="M0.00435047741,5.50001893 L10.7909748,5.50001893 L10.7909748,4.50001893 L0.00435047741,4.50001893 L0.00435047741,5.50001893 Z M74.1269123,5.50001893 L84.9135366,5.50001893 L84.9135366,8.50001893 L91.9135366,5.00001893 L84.9135366,1.50001893 L84.9135366,4.50001893 L74.1269123,4.50001893 L74.1269123,5.50001893 Z" id="Shape" fill="#A5ABB6" fill-rule="nonzero"></path>
                    <text id="SENT_TO" fill="#000000" font-family="Helvetica" font-size="8" font-weight="normal">
                        <tspan x="23.3484764" y="8.07128545">SENT_TO</tspan>
                    </text>
                </g>
                <g transform="translate(45.323704, 154.454279) rotate(26.789510) translate(-45.323704, -154.454279) translate(-1.676296, 148.454279)">
                    <path d="M0.0275582392,8.49981013 L11.436618,8.49981013 L11.436618,7.49981013 L0.0275582392,7.49981013 L0.0275582392,8.49981013 Z M74.7725555,8.49981013 L86.1816153,8.49981013 L86.1816153,11.4998101 L93.1816153,7.99981013 L86.1816153,4.49981013 L86.1816153,7.49981013 L74.7725555,7.49981013 L74.7725555,8.49981013 Z" id="Shape" fill="#A5ABB6" fill-rule="nonzero"></path>
                    <text id="SENT_TO" fill="#000000" font-family="Helvetica" font-size="8" font-weight="normal">
                        <tspan x="21.7444709" y="8.54130016">SENT_TO</tspan>
                    </text>
                </g>
                <g transform="translate(164.170308, 121.513167) rotate(-1.828361) translate(-164.170308, -121.513167) translate(128.670308, 116.013167)">
                    <path d="M0.992719186,6.5071763 L2.59027955,6.5071763 L2.59027955,5.5071763 L0.992719186,5.5071763 L0.992719186,6.5071763 Z M61.926217,6.5071763 L63.5237774,6.5071763 L63.5237774,9.5071763 L70.5237774,6.0071763 L63.5237774,2.5071763 L63.5237774,5.5071763 L61.926217,5.5071763 L61.926217,6.5071763 Z" id="Shape" fill="#A5ABB6" fill-rule="nonzero"></path>
                    <text id="SENT_TO" fill="#000000" font-family="Helvetica" font-size="8" font-weight="normal">
                        <tspan x="11.3170463" y="8.80567114">SENT_TO</tspan>
                    </text>
                </g>
                <g transform="translate(166.093316, 88.009943) rotate(27.627329) translate(-166.093316, -88.009943) translate(124.093316, 82.509943)">
                    <path d="M0.0164231067,7.49991009 L6.5135444,7.49991009 L6.5135444,6.49991009 L0.0164231067,6.49991009 L0.0164231067,7.49991009 Z M69.8494819,7.49991009 L76.3466032,7.49991009 L76.3466032,10.4999101 L83.3466032,6.99991009 L76.3466032,3.49991009 L76.3466032,6.49991009 L69.8494819,6.49991009 L69.8494819,7.49991009 Z" id="Shape" fill="#A5ABB6" fill-rule="nonzero"></path>
                    <text id="SENT_TO" fill="#000000" font-family="Helvetica" font-size="8" font-weight="normal">
                        <tspan x="15.7989523" y="8.00470442">SENT_TO</tspan>
                    </text>
                </g>
                <g transform="translate(166.426258, 154.585212) rotate(-30.412329) translate(-166.426258, -154.585212) translate(123.926258, 149.085212)">
                    <path d="M0.00359822179,5.50001295 L7.21453166,5.50001295 L7.21453166,4.50001295 L0.00359822179,4.50001295 L0.00359822179,5.50001295 Z M70.5504692,5.50001295 L77.7614026,5.50001295 L77.7614026,8.50001295 L84.7614026,5.00001295 L77.7614026,1.50001295 L77.7614026,4.50001295 L70.5504692,4.50001295 L70.5504692,5.50001295 Z" id="Shape" fill="#A5ABB6" fill-rule="nonzero"></path>
                    <text id="SENT_TO" fill="#000000" font-family="Helvetica" font-size="8" font-weight="normal">
                        <tspan x="18.5291592" y="8.08875784">SENT_TO</tspan>
                    </text>
                </g>
            </g>
            <g id="Group">
                <g transform="translate(334.814627, 133.131990)">
                    <circle id="Oval" stroke="#F36924" stroke-width="2" fill="#F79767" fill-rule="nonzero" cx="25" cy="25" r="25"></circle>
                    <text id="Kylie" fill="#FFFFFF" font-family="Helvetica" font-size="10" font-weight="normal">
                        <tspan x="14" y="25">Kylie</tspan>
                    </text>
                    <text id="Holman" fill="#FFFFFF" font-family="Helvetica" font-size="10" font-weight="normal">
                        <tspan x="7.5" y="35">Holman</tspan>
                    </text>
                </g>
                <g transform="translate(754.494542, 127.577523)">
                    <circle id="Oval" stroke="#F36924" stroke-width="2" fill="#F79767" fill-rule="nonzero" cx="25" cy="25" r="25"></circle>
                    <text id="Trinity" fill="#FFFFFF" font-family="Helvetica" font-size="10" font-weight="normal">
                        <tspan x="11.5" y="25">Trinity</tspan>
                    </text>
                    <text id="Whitfield" fill="#FFFFFF" font-family="Helvetica" font-size="10" font-weight="normal">
                        <tspan x="5.5" y="35">Whitfield</tspan>
                    </text>
                </g>
                <g transform="translate(540.592148, 136.213893)">
                    <circle id="Oval" stroke="#F36924" stroke-width="2" fill="#F79767" fill-rule="nonzero" cx="25" cy="25" r="25"></circle>
                    <text id="Abigail" fill="#FFFFFF" font-family="Helvetica" font-size="10" font-weight="normal">
                        <tspan x="9.5" y="25">Abigail</tspan>
                    </text>
                    <text id="Dickers…" fill="#FFFFFF" font-family="Helvetica" font-size="10" font-weight="normal">
                        <tspan x="3" y="35">Dickers…</tspan>
                    </text>
                </g>
                <g transform="translate(531.431464, 65.756471)">
                    <circle id="Oval" stroke="#F36924" stroke-width="2" fill="#F79767" fill-rule="nonzero" cx="25" cy="25" r="25"></circle>
                    <text id="Anna" fill="#FFFFFF" font-family="Helvetica" font-size="10" font-weight="normal">
                        <tspan x="13" y="25">Anna</tspan>
                    </text>
                    <text id="Burnett" fill="#FFFFFF" font-family="Helvetica" font-size="10" font-weight="normal">
                        <tspan x="8.5" y="35">Burnett</tspan>
                    </text>
                </g>
                <g transform="translate(580.780725, 100.633241)">
                    <circle id="Oval" stroke="#F36924" stroke-width="2" fill="#F79767" fill-rule="nonzero" cx="25" cy="25" r="25"></circle>
                    <text id="Colton" fill="#FFFFFF" font-family="Helvetica" font-size="10" font-weight="normal">
                        <tspan x="10.5" y="25">Colton</tspan>
                    </text>
                    <text id="Cannon" fill="#FFFFFF" font-family="Helvetica" font-size="10" font-weight="normal">
                        <tspan x="7" y="35">Cannon</tspan>
                    </text>
                </g>
                <g transform="translate(546.345248, 187.044654)">
                    <circle id="Oval" stroke="#F36924" stroke-width="2" fill="#F79767" fill-rule="nonzero" cx="25" cy="25" r="25"></circle>
                    <text id="Addison" fill="#FFFFFF" font-family="Helvetica" font-size="10" font-weight="normal">
                        <tspan x="6.5" y="25">Addison</tspan>
                    </text>
                    <text id="Singleton" fill="#FFFFFF" font-family="Helvetica" font-size="10" font-weight="normal">
                        <tspan x="4" y="35">Singleton</tspan>
                    </text>
                </g>
                <g transform="translate(517.385261, 261.427141)">
                    <circle id="Oval" stroke="#F36924" stroke-width="2" fill="#F79767" fill-rule="nonzero" cx="25" cy="25" r="25"></circle>
                    <text id="Alyssa" fill="#FFFFFF" font-family="Helvetica" font-size="10" font-weight="normal">
                        <tspan x="10" y="25">Alyssa</tspan>
                    </text>
                    <text id="Meadows" fill="#FFFFFF" font-family="Helvetica" font-size="10" font-weight="normal">
                        <tspan x="3.5" y="35">Meadows</tspan>
                    </text>
                </g>
                <g transform="translate(528.194182, 0.118380)">
                    <circle id="Oval" stroke="#F36924" stroke-width="2" fill="#F79767" fill-rule="nonzero" cx="25" cy="25" r="25"></circle>
                    <text id="Dominic" fill="#FFFFFF" font-family="Helvetica" font-size="10" font-weight="normal">
                        <tspan x="6.5" y="25">Dominic</tspan>
                    </text>
                    <text id="Carson" fill="#FFFFFF" font-family="Helvetica" font-size="10" font-weight="normal">
                        <tspan x="8.5" y="35">Carson</tspan>
                    </text>
                </g>
                <g transform="translate(619.026040, 247.320222)">
                    <circle id="Oval" stroke="#F36924" stroke-width="2" fill="#F79767" fill-rule="nonzero" cx="25" cy="25" r="25"></circle>
                    <text id="Samuel" fill="#FFFFFF" font-family="Helvetica" font-size="10" font-weight="normal">
                        <tspan x="8" y="25">Samuel</tspan>
                    </text>
                    <text id="Serrano" fill="#FFFFFF" font-family="Helvetica" font-size="10" font-weight="normal">
                        <tspan x="7" y="35">Serrano</tspan>
                    </text>
                </g>
                <g transform="translate(596.638351, 8.515692)">
                    <circle id="Oval" stroke="#F36924" stroke-width="2" fill="#F79767" fill-rule="nonzero" cx="25" cy="25" r="25"></circle>
                    <text id="Elizabeth" fill="#FFFFFF" font-family="Helvetica" font-size="10" font-weight="normal">
                        <tspan x="4" y="25">Elizabeth</tspan>
                    </text>
                    <text id="Orr" fill="#FFFFFF" font-family="Helvetica" font-size="10" font-weight="normal">
                        <tspan x="17.5" y="35">Orr</tspan>
                    </text>
                </g>
                <g transform="translate(0.174841, 131.800451)">
                    <circle id="Oval" stroke="#F36924" stroke-width="2" fill="#F79767" fill-rule="nonzero" cx="25" cy="25" r="25"></circle>
                    <text id="Hunter" fill="#FFFFFF" font-family="Helvetica" font-size="10" font-weight="normal">
                        <tspan x="9.5" y="25">Hunter</tspan>
                    </text>
                    <text id="Anthony" fill="#FFFFFF" font-family="Helvetica" font-size="10" font-weight="normal">
                        <tspan x="6.5" y="35">Anthony</tspan>
                    </text>
                </g>
                <g transform="translate(244.179708, 128.104997)">
                    <circle id="Oval" stroke="#F36924" stroke-width="2" fill="#F79767" fill-rule="nonzero" cx="25" cy="25" r="25"></circle>
                    <text id="Adrian" fill="#FFFFFF" font-family="Helvetica" font-size="10" font-weight="normal">
                        <tspan x="10.5" y="25">Adrian</tspan>
                    </text>
                    <text id="Willis" fill="#FFFFFF" font-family="Helvetica" font-size="10" font-weight="normal">
                        <tspan x="13" y="35">Willis</tspan>
                    </text>
                </g>
                <g transform="translate(124.709505, 131.918695)">
                    <circle id="Oval" stroke="#F36924" stroke-width="2" fill="#F79767" fill-rule="nonzero" cx="25" cy="25" r="25"></circle>
                    <text id="Isaiah" fill="#FFFFFF" font-family="Helvetica" font-size="10" font-weight="normal">
                        <tspan x="11.5" y="25">Isaiah</tspan>
                    </text>
                    <text id="Ochoa" fill="#FFFFFF" font-family="Helvetica" font-size="10" font-weight="normal">
                        <tspan x="10" y="35">Ochoa</tspan>
                    </text>
                </g>
                <g transform="translate(126.051503, 66.277301)">
                    <circle id="Oval" stroke="#F36924" stroke-width="2" fill="#F79767" fill-rule="nonzero" cx="25" cy="25" r="25"></circle>
                    <text id="Jackson" fill="#FFFFFF" font-family="Helvetica" font-size="10" font-weight="normal">
                        <tspan x="6.5" y="25">Jackson</tspan>
                    </text>
                    <text id="Robinson" fill="#FFFFFF" font-family="Helvetica" font-size="10" font-weight="normal">
                        <tspan x="3.5" y="35">Robinson</tspan>
                    </text>
                </g>
                <g transform="translate(127.963937, 196.322005)">
                    <circle id="Oval" stroke="#F36924" stroke-width="2" fill="#F79767" fill-rule="nonzero" cx="25" cy="25" r="25"></circle>
                    <text id="Christop…" fill="#FFFFFF" font-family="Helvetica" font-size="10" font-weight="normal">
                        <tspan x="1" y="30">Christop…</tspan>
                    </text>
                </g>
            </g>
        </g>
    </g>
</svg>